<?xml version="1.0" encoding="iso-8859-1"?>
<!-- Generator: Adobe Illustrator 16.0.0, SVG Export Plug-In . SVG Version: 6.00 Build 0)  -->
<!DOCTYPE svg PUBLIC "-//W3C//DTD SVG 1.1//EN" "http://www.w3.org/Graphics/SVG/1.1/DTD/svg11.dtd">
<svg version="1.1" id="Capa_1" xmlns="http://www.w3.org/2000/svg" xmlns:xlink="http://www.w3.org/1999/xlink" x="0px" y="0px"
	 width="519.435px" height="519.435px" viewBox="0 0 519.435 519.435" style="enable-background:new 0 0 519.435 519.435;"
	 xml:space="preserve">
<g>
	<g>
		<path d="M345.095,116.82l-0.242,69.456c-11.576,0.881-24.049,2.148-37.176,3.804c-6.641,0.921-13.415,1.738-20.358,2.91
			c-3.458,0.554-6.952,1.114-10.48,1.68c-3.521,0.652-7.081,1.307-10.667,1.971c-14.309,2.625-29.033,6.028-43.825,9.829
			c-14.808,4.067-29.691,8.421-44.336,13.847c-3.66,1.353-7.307,2.598-10.93,4.036c-3.605,1.478-7.203,2.956-10.796,4.431
			c-7.169,2.791-14.165,6.362-21.074,9.511c-6.885,3.338-13.577,7.053-20.141,10.539c-6.457,3.944-12.849,7.537-18.896,11.592
			c-12.103,8.074-23.29,16.478-33.106,25.29c-9.902,8.682-18.433,17.712-25.729,26.322c-3.531,4.452-6.955,8.59-10.003,12.669
			c-2.828,4.231-5.508,8.243-8.029,12.017c-2.61,3.635-4.425,7.519-6.337,10.866c-1.836,3.375-3.522,6.475-5.046,9.271
			C2.879,368.45,0,375.075,0,375.075s4.826-5.232,13.271-14.391c2.286-2.075,4.82-4.373,7.577-6.873
			c2.794-2.43,5.514-5.27,9.03-7.727c3.354-2.534,6.921-5.229,10.686-8.075c3.907-2.626,8.155-5.178,12.426-7.901
			c8.798-5.171,18.525-10.202,29.184-14.492c10.566-4.415,22.087-8.041,34.03-11.123c5.96-1.558,12.24-2.632,18.354-3.98
			c6.34-0.934,12.607-2.035,19.03-2.767c6.505-0.56,12.831-1.481,19.44-1.68c3.256-0.172,6.518-0.346,9.783-0.518
			c3.262-0.138,6.588-0.095,9.856-0.152c13.072-0.251,26.27,0.477,39.113,1.346c12.919,1.129,25.536,2.503,37.736,4.431
			c3.038,0.472,6.053,0.939,9.039,1.402c2.983,0.541,5.937,1.073,8.861,1.603c5.82,0.985,11.527,2.265,17.039,3.369
			c11.04,2.378,21.395,4.869,30.872,7.412c3.133,0.829,6.132,1.661,9.066,2.487l-0.297,85.169l175.338-142.29L345.095,116.82z"/>
	</g>
</g>
<g>
</g>
<g>
</g>
<g>
</g>
<g>
</g>
<g>
</g>
<g>
</g>
<g>
</g>
<g>
</g>
<g>
</g>
<g>
</g>
<g>
</g>
<g>
</g>
<g>
</g>
<g>
</g>
<g>
</g>
</svg>
